<svg width="32" height="32" viewBox="0 0 32 32" fill="none" xmlns="http://www.w3.org/2000/svg">
  <!-- Background Circle -->
  <circle cx="16" cy="16" r="16" fill="url(#gradient)"/>
  
  <!-- Laptop -->
  <rect x="6" y="16" width="20" height="10" rx="2" fill="#374151" stroke="#1F2937" stroke-width="0.5"/>
  <rect x="8" y="18" width="16" height="6" rx="1" fill="#1F2937"/>
  <rect x="10" y="20" width="12" height="2" fill="#10B981"/>
  
  <!-- Boy's Head -->
  <circle cx="16" cy="10" r="5" fill="#FBBF24"/>
  
  <!-- Hair -->
  <path d="M11 7 Q16 5 21 7 Q19 8 16 8 Q13 8 11 7" fill="#92400E"/>
  
  <!-- Eyes -->
  <circle cx="14" cy="9" r="0.8" fill="#1F2937"/>
  <circle cx="18" cy="9" r="0.8" fill="#1F2937"/>
  <circle cx="14.5" cy="8.5" r="0.2" fill="white"/>
  <circle cx="18.5" cy="8.5" r="0.2" fill="white"/>
  
  <!-- Smile -->
  <path d="M13.5 11.5 Q16 13 18.5 11.5" stroke="#1F2937" stroke-width="0.5" fill="none" stroke-linecap="round"/>
  
  <!-- Arms -->
  <rect x="5" y="14" width="2" height="6" rx="1" fill="#FBBF24"/>
  <rect x="25" y="14" width="2" height="6" rx="1" fill="#FBBF24"/>
  
  <!-- Hands -->
  <circle cx="6" cy="20" r="1" fill="#FBBF24"/>
  <circle cx="26" cy="20" r="1" fill="#FBBF24"/>
  
  <!-- Gradient Definition -->
  <defs>
    <linearGradient id="gradient" x1="0%" y1="0%" x2="100%" y2="100%">
      <stop offset="0%" style="stop-color:#8B5CF6;stop-opacity:1" />
      <stop offset="100%" style="stop-color:#3B82F6;stop-opacity:1" />
    </linearGradient>
  </defs>
</svg> 